<?xml version="1.0" encoding="UTF-8"?>
<svg width="800" height="800" viewBox="0 0 800 800" xmlns="http://www.w3.org/2000/svg">
    <!-- Main trunk -->
    <path d="M400 800 L400 600" stroke="currentColor" stroke-width="4" fill="none"/>
    
    <!-- Primary branches -->
    <path d="M400 600 Q300 500 200 450" stroke="currentColor" stroke-width="3" fill="none"/>
    <path d="M400 600 Q500 500 600 450" stroke="currentColor" stroke-width="3" fill="none"/>
    <path d="M400 600 Q350 450 250 400" stroke="currentColor" stroke-width="3" fill="none"/>
    <path d="M400 600 Q450 450 550 400" stroke="currentColor" stroke-width="3" fill="none"/>
    
    <!-- Secondary branches -->
    <path d="M200 450 Q150 400 100 380" stroke="currentColor" stroke-width="2" fill="none"/>
    <path d="M200 450 Q250 400 300 380" stroke="currentColor" stroke-width="2" fill="none"/>
    <path d="M600 450 Q550 400 500 380" stroke="currentColor" stroke-width="2" fill="none"/>
    <path d="M600 450 Q650 400 700 380" stroke="currentColor" stroke-width="2" fill="none"/>
    
    <!-- Leaves -->
    <circle cx="100" cy="380" r="5" fill="currentColor"/>
    <circle cx="300" cy="380" r="5" fill="currentColor"/>
    <circle cx="500" cy="380" r="5" fill="currentColor"/>
    <circle cx="700" cy="380" r="5" fill="currentColor"/>
    <circle cx="250" cy="400" r="5" fill="currentColor"/>
    <circle cx="550" cy="400" r="5" fill="currentColor"/>
</svg> 